<svg id="visual" viewBox="0 0 1920 1080" width="1920" height="1080" xmlns="http://www.w3.org/2000/svg" xmlns:xlink="http://www.w3.org/1999/xlink" version="1.1"><rect x="0" y="0" width="1920" height="1080" fill="#fff"></rect><defs><linearGradient id="grad1_0" x1="43.8%" y1="0%" x2="100%" y2="100%"><stop offset="14.444444444444446%" stop-color="#ffffff" stop-opacity="1"></stop><stop offset="85.55555555555554%" stop-color="#ffffff" stop-opacity="1"></stop></linearGradient></defs><defs><linearGradient id="grad2_0" x1="0%" y1="0%" x2="56.3%" y2="100%"><stop offset="14.444444444444446%" stop-color="#ffffff" stop-opacity="1"></stop><stop offset="85.55555555555554%" stop-color="#ffffff" stop-opacity="1"></stop></linearGradient></defs><g transform="translate(1920, 0)"><path d="M0 972C-92.5 873.2 -184.9 774.4 -306.9 741C-428.9 707.5 -580.5 739.2 -687.3 687.3C-794.1 635.4 -856.2 499.7 -896.2 371.2C-936.2 242.7 -954.1 121.3 -972 0L0 0Z" fill="#FF5F1F"></path></g><g transform="translate(0, 1080)"><path d="M0 -972C124.4 -958.1 248.9 -944.3 372 -898C495.1 -851.8 616.8 -773.2 664 -664C711.1 -554.8 683.6 -415 722.5 -299.3C761.4 -183.5 866.7 -91.7 972 0L0 0Z" fill="#FF5F1F"></path></g></svg>