<svg id="visual" viewBox="0 0 1920 1080" width="1920" height="1080" xmlns="http://www.w3.org/2000/svg" xmlns:xlink="http://www.w3.org/1999/xlink" version="1.1"><rect x="0" y="0" width="1920" height="1080" fill="#FAF9F6"></rect><defs><linearGradient id="grad1_0" x1="43.8%" y1="0%" x2="100%" y2="100%"><stop offset="14.444444444444446%" stop-color="#faf9f6" stop-opacity="1"></stop><stop offset="85.55555555555554%" stop-color="#faf9f6" stop-opacity="1"></stop></linearGradient></defs><defs><linearGradient id="grad2_0" x1="0%" y1="0%" x2="56.3%" y2="100%"><stop offset="14.444444444444446%" stop-color="#faf9f6" stop-opacity="1"></stop><stop offset="85.55555555555554%" stop-color="#faf9f6" stop-opacity="1"></stop></linearGradient></defs><g transform="translate(1920, 0)"><path d="M0 918C-124.2 909.5 -248.4 901 -351.3 848.1C-454.2 795.3 -535.7 698 -605.3 605.3C-674.8 512.5 -732.4 424.3 -782.5 324.1C-832.6 224 -875.3 112 -918 0L0 0Z" fill="#0096FF"></path></g><g transform="translate(0, 1080)"><path d="M0 -918C120.5 -905.3 240.9 -892.6 351.3 -848.1C461.7 -803.7 562 -727.6 637.1 -637.1C712.2 -546.7 762.1 -441.9 804.7 -333.3C847.3 -224.7 882.7 -112.4 918 0L0 0Z" fill="#0096FF"></path></g></svg>