<svg id="visual" viewBox="0 0 1920 1080" width="1920" height="1080" xmlns="http://www.w3.org/2000/svg" xmlns:xlink="http://www.w3.org/1999/xlink" version="1.1"><rect x="0" y="0" width="1920" height="1080" fill="#fff"></rect><defs><linearGradient id="grad1_0" x1="43.8%" y1="0%" x2="100%" y2="100%"><stop offset="14.444444444444446%" stop-color="#ffffff" stop-opacity="1"></stop><stop offset="85.55555555555554%" stop-color="#ffffff" stop-opacity="1"></stop></linearGradient></defs><defs><linearGradient id="grad2_0" x1="0%" y1="0%" x2="56.3%" y2="100%"><stop offset="14.444444444444446%" stop-color="#ffffff" stop-opacity="1"></stop><stop offset="85.55555555555554%" stop-color="#ffffff" stop-opacity="1"></stop></linearGradient></defs><g transform="translate(1920, 0)"><path d="M0 972C-109.7 910.4 -219.4 848.9 -333.3 804.7C-447.2 760.5 -565.4 733.8 -666.1 666.1C-766.8 598.4 -849.9 489.8 -898 372C-946.1 254.1 -959 127.1 -972 0L0 0Z" fill="#0db8a8"></path></g><g transform="translate(0, 1080)"><path d="M0 -972C107.9 -894.2 215.9 -816.3 314.2 -758.5C412.5 -700.7 501.2 -662.8 606.7 -606.7C712.2 -550.6 834.3 -476.1 898 -372C961.7 -267.8 966.8 -133.9 972 0L0 0Z" fill="#0db8a8"></path></g></svg>