<svg xmlns="http://www.w3.org/2000/svg" version="1.1" xmlns:xlink="http://www.w3.org/1999/xlink" xmlns:svgjs="http://svgjs.com/svgjs" width="1920" height="1080" preserveAspectRatio="none" viewBox="0 0 1920 1080"><g mask="url(&quot;#SvgjsMask1063&quot;)" fill="none"><rect width="1920" height="1080" x="0" y="0" fill="rgba(13, 184, 168, 1)"></rect><path d="M0,834.807C153.579,833.295,254.547,680.146,384.703,598.61C516.78,515.871,690.757,485.75,770.735,351.983C852.905,214.549,820.985,43.085,812.443,-116.812C803.104,-291.619,834.117,-491.139,718.663,-622.725C603.258,-754.255,402.999,-759.261,229.412,-781.307C77.89,-800.551,-68.183,-772.525,-217.77,-741.656C-380.883,-707.996,-567.496,-711.696,-684.117,-592.791C-802.08,-472.517,-810.708,-286.64,-828.363,-119.101C-845.453,43.077,-868.736,218.659,-784.331,358.192C-702.238,493.904,-525.149,523.866,-389.603,606.233C-258.27,686.04,-153.673,836.32,0,834.807" fill="#09786d"></path><path d="M1920 1869.863C2075.506 1892.876 2249.709 1882.8490000000002 2374.636 1787.4279999999999 2497.563 1693.534 2520.334 1522.975 2567.1639999999998 1375.55 2608.686 1244.833 2661.016 1111.668 2631.864 977.649 2603.568 847.564 2498.797 754.61 2410.437 655.034 2323.131 556.646 2235.225 462.98800000000006 2119.57 400.327 1981.083 325.29499999999996 1828.514 209.62800000000004 1678.831 258.65200000000004 1528.655 307.83799999999997 1494.7440000000001 503.773 1405.513 634.1949999999999 1327.9470000000001 747.567 1194.221 837.611 1188.815 974.872 1183.4569999999999 1110.927 1315.826 1206.399 1378.212 1327.426 1436.799 1441.0819999999999 1453.967 1574.085 1544.329 1664.5549999999998 1647.26 1767.609 1775.915 1848.5410000000002 1920 1869.863" fill="#1befdb"></path></g><defs><mask id="SvgjsMask1063"><rect width="1920" height="1080" fill="#ffffff"></rect></mask></defs></svg>